<mxfile host="app.diagrams.net" modified="2024-07-28T06:25:46.377Z" agent="Mozilla/5.0 (X11; Linux x86_64) AppleWebKit/537.36 (KHTML, like Gecko) Chrome/126.0.0.0 Safari/537.36 Edg/126.0.0.0" etag="I9d7Z3CFcYYoWUCKWfTl" version="24.6.4" type="device">
  <diagram name="Page-1" id="X-pv3IP3LoI9lnjnLHxQ">
    <mxGraphModel dx="1426" dy="797" grid="1" gridSize="10" guides="1" tooltips="1" connect="1" arrows="1" fold="1" page="1" pageScale="1" pageWidth="850" pageHeight="1100" math="0" shadow="0">
      <root>
        <mxCell id="0" />
        <mxCell id="1" parent="0" />
        <mxCell id="U0QtMe0iaihSaPbelgbA-1" value="" style="rounded=0;whiteSpace=wrap;html=1;" vertex="1" parent="1">
          <mxGeometry x="930" y="270" width="840" height="830" as="geometry" />
        </mxCell>
        <mxCell id="U0QtMe0iaihSaPbelgbA-2" style="edgeStyle=none;rounded=0;orthogonalLoop=1;jettySize=auto;html=1;exitX=0.5;exitY=0.5;exitDx=0;exitDy=0;exitPerimeter=0;entryX=0;entryY=0.5;entryDx=0;entryDy=0;" edge="1" parent="1" source="U0QtMe0iaihSaPbelgbA-10" target="U0QtMe0iaihSaPbelgbA-17">
          <mxGeometry relative="1" as="geometry" />
        </mxCell>
        <mxCell id="U0QtMe0iaihSaPbelgbA-3" value="&amp;lt;&amp;lt;include&amp;gt;&amp;gt;" style="edgeStyle=none;rounded=0;orthogonalLoop=1;jettySize=auto;html=1;exitX=0;exitY=0.5;exitDx=0;exitDy=0;entryX=1;entryY=0;entryDx=0;entryDy=0;dashed=1;" edge="1" parent="1" source="U0QtMe0iaihSaPbelgbA-40" target="U0QtMe0iaihSaPbelgbA-21">
          <mxGeometry relative="1" as="geometry" />
        </mxCell>
        <mxCell id="U0QtMe0iaihSaPbelgbA-4" style="edgeStyle=none;rounded=0;orthogonalLoop=1;jettySize=auto;html=1;exitX=0.5;exitY=0.5;exitDx=0;exitDy=0;exitPerimeter=0;entryX=0;entryY=0.5;entryDx=0;entryDy=0;" edge="1" parent="1" source="U0QtMe0iaihSaPbelgbA-10" target="U0QtMe0iaihSaPbelgbA-21">
          <mxGeometry relative="1" as="geometry" />
        </mxCell>
        <mxCell id="U0QtMe0iaihSaPbelgbA-5" style="edgeStyle=none;rounded=0;orthogonalLoop=1;jettySize=auto;html=1;exitX=0.5;exitY=0.5;exitDx=0;exitDy=0;exitPerimeter=0;entryX=0;entryY=0.5;entryDx=0;entryDy=0;" edge="1" parent="1" source="U0QtMe0iaihSaPbelgbA-10" target="U0QtMe0iaihSaPbelgbA-13">
          <mxGeometry relative="1" as="geometry" />
        </mxCell>
        <mxCell id="U0QtMe0iaihSaPbelgbA-6" style="edgeStyle=none;rounded=0;orthogonalLoop=1;jettySize=auto;html=1;exitX=0.5;exitY=0.5;exitDx=0;exitDy=0;exitPerimeter=0;entryX=0;entryY=0.5;entryDx=0;entryDy=0;" edge="1" parent="1" source="U0QtMe0iaihSaPbelgbA-10" target="U0QtMe0iaihSaPbelgbA-12">
          <mxGeometry relative="1" as="geometry" />
        </mxCell>
        <mxCell id="U0QtMe0iaihSaPbelgbA-7" style="edgeStyle=none;rounded=0;orthogonalLoop=1;jettySize=auto;html=1;exitX=0.5;exitY=0.5;exitDx=0;exitDy=0;exitPerimeter=0;entryX=0;entryY=0.5;entryDx=0;entryDy=0;" edge="1" parent="1" source="U0QtMe0iaihSaPbelgbA-10" target="U0QtMe0iaihSaPbelgbA-15">
          <mxGeometry relative="1" as="geometry" />
        </mxCell>
        <mxCell id="U0QtMe0iaihSaPbelgbA-8" value="&amp;lt;&amp;lt;include&amp;gt;&amp;gt;" style="edgeStyle=orthogonalEdgeStyle;rounded=0;orthogonalLoop=1;jettySize=auto;html=1;exitX=0;exitY=0.5;exitDx=0;exitDy=0;entryX=0.5;entryY=1;entryDx=0;entryDy=0;dashed=1;" edge="1" parent="1" source="U0QtMe0iaihSaPbelgbA-19" target="U0QtMe0iaihSaPbelgbA-21">
          <mxGeometry relative="1" as="geometry" />
        </mxCell>
        <mxCell id="U0QtMe0iaihSaPbelgbA-9" value="&amp;lt;&amp;lt;include&amp;gt;&amp;gt;" style="edgeStyle=orthogonalEdgeStyle;rounded=0;orthogonalLoop=1;jettySize=auto;html=1;exitX=0;exitY=0.5;exitDx=0;exitDy=0;entryX=0.5;entryY=1;entryDx=0;entryDy=0;dashed=1;" edge="1" parent="1" source="U0QtMe0iaihSaPbelgbA-35" target="U0QtMe0iaihSaPbelgbA-21">
          <mxGeometry relative="1" as="geometry" />
        </mxCell>
        <mxCell id="U0QtMe0iaihSaPbelgbA-10" value="Customer" style="shape=umlActor;verticalLabelPosition=bottom;verticalAlign=top;html=1;outlineConnect=0;" vertex="1" parent="1">
          <mxGeometry x="760" y="660" width="30" height="60" as="geometry" />
        </mxCell>
        <mxCell id="U0QtMe0iaihSaPbelgbA-11" value="&amp;lt;&amp;lt;extends&amp;gt;&amp;gt;" style="edgeStyle=none;rounded=0;orthogonalLoop=1;jettySize=auto;html=1;dashed=1;entryX=1;entryY=0.5;entryDx=0;entryDy=0;" edge="1" parent="1" source="U0QtMe0iaihSaPbelgbA-25" target="U0QtMe0iaihSaPbelgbA-12">
          <mxGeometry x="0.0036" relative="1" as="geometry">
            <mxPoint as="offset" />
          </mxGeometry>
        </mxCell>
        <mxCell id="U0QtMe0iaihSaPbelgbA-12" value="View product listing" style="ellipse;whiteSpace=wrap;html=1;" vertex="1" parent="1">
          <mxGeometry x="960" y="890" width="120" height="80" as="geometry" />
        </mxCell>
        <mxCell id="U0QtMe0iaihSaPbelgbA-13" value="View homepage" style="ellipse;whiteSpace=wrap;html=1;" vertex="1" parent="1">
          <mxGeometry x="960" y="490" width="120" height="80" as="geometry" />
        </mxCell>
        <mxCell id="U0QtMe0iaihSaPbelgbA-14" value="&amp;lt;&amp;lt;extends&amp;gt;&amp;gt;" style="edgeStyle=none;rounded=0;orthogonalLoop=1;jettySize=auto;html=1;exitX=0;exitY=0.5;exitDx=0;exitDy=0;entryX=1;entryY=0.5;entryDx=0;entryDy=0;dashed=1;" edge="1" parent="1" source="U0QtMe0iaihSaPbelgbA-31" target="U0QtMe0iaihSaPbelgbA-15">
          <mxGeometry relative="1" as="geometry" />
        </mxCell>
        <mxCell id="U0QtMe0iaihSaPbelgbA-15" value="View post listing" style="ellipse;whiteSpace=wrap;html=1;" vertex="1" parent="1">
          <mxGeometry x="960" y="1010" width="120" height="80" as="geometry" />
        </mxCell>
        <mxCell id="U0QtMe0iaihSaPbelgbA-16" value="&amp;lt;&amp;lt;extends&amp;gt;&amp;gt;" style="edgeStyle=orthogonalEdgeStyle;rounded=0;orthogonalLoop=1;jettySize=auto;html=1;exitX=0;exitY=0.5;exitDx=0;exitDy=0;entryX=1;entryY=0.5;entryDx=0;entryDy=0;dashed=1;" edge="1" parent="1" source="U0QtMe0iaihSaPbelgbA-29" target="U0QtMe0iaihSaPbelgbA-17">
          <mxGeometry relative="1" as="geometry" />
        </mxCell>
        <mxCell id="U0QtMe0iaihSaPbelgbA-17" value="View cart" style="ellipse;whiteSpace=wrap;html=1;" vertex="1" parent="1">
          <mxGeometry x="960" y="390" width="120" height="80" as="geometry" />
        </mxCell>
        <mxCell id="U0QtMe0iaihSaPbelgbA-18" value="&amp;lt;&amp;lt;extends&amp;gt;&amp;gt;" style="edgeStyle=orthogonalEdgeStyle;rounded=0;orthogonalLoop=1;jettySize=auto;html=1;exitX=0;exitY=0.5;exitDx=0;exitDy=0;entryX=1;entryY=0.5;entryDx=0;entryDy=0;dashed=1;" edge="1" parent="1" source="U0QtMe0iaihSaPbelgbA-33" target="U0QtMe0iaihSaPbelgbA-19">
          <mxGeometry relative="1" as="geometry" />
        </mxCell>
        <mxCell id="U0QtMe0iaihSaPbelgbA-19" value="View order history" style="ellipse;whiteSpace=wrap;html=1;" vertex="1" parent="1">
          <mxGeometry x="1220" y="720" width="120" height="80" as="geometry" />
        </mxCell>
        <mxCell id="U0QtMe0iaihSaPbelgbA-20" value="&amp;lt;&amp;lt;extends&amp;gt;&amp;gt;" style="rounded=0;orthogonalLoop=1;jettySize=auto;html=1;exitX=0;exitY=0.5;exitDx=0;exitDy=0;entryX=1;entryY=0.5;entryDx=0;entryDy=0;dashed=1;" edge="1" parent="1" source="U0QtMe0iaihSaPbelgbA-27" target="U0QtMe0iaihSaPbelgbA-21">
          <mxGeometry relative="1" as="geometry">
            <mxPoint as="offset" />
          </mxGeometry>
        </mxCell>
        <mxCell id="U0QtMe0iaihSaPbelgbA-21" value="Login" style="ellipse;whiteSpace=wrap;html=1;" vertex="1" parent="1">
          <mxGeometry x="960" y="650" width="120" height="80" as="geometry" />
        </mxCell>
        <mxCell id="U0QtMe0iaihSaPbelgbA-22" value="&amp;lt;&amp;lt;extends&amp;gt;&amp;gt;" style="edgeStyle=orthogonalEdgeStyle;rounded=0;orthogonalLoop=1;jettySize=auto;html=1;dashed=1;entryX=1;entryY=0.5;entryDx=0;entryDy=0;" edge="1" parent="1" source="U0QtMe0iaihSaPbelgbA-26" target="U0QtMe0iaihSaPbelgbA-24">
          <mxGeometry relative="1" as="geometry" />
        </mxCell>
        <mxCell id="U0QtMe0iaihSaPbelgbA-23" value="&amp;lt;&amp;lt;extends&amp;gt;&amp;gt;" style="edgeStyle=orthogonalEdgeStyle;rounded=0;orthogonalLoop=1;jettySize=auto;html=1;exitX=0;exitY=0.5;exitDx=0;exitDy=0;entryX=1;entryY=0.5;entryDx=0;entryDy=0;dashed=1;" edge="1" parent="1" source="U0QtMe0iaihSaPbelgbA-24" target="U0QtMe0iaihSaPbelgbA-40">
          <mxGeometry relative="1" as="geometry" />
        </mxCell>
        <mxCell id="U0QtMe0iaihSaPbelgbA-24" value="Edit profile" style="ellipse;whiteSpace=wrap;html=1;" vertex="1" parent="1">
          <mxGeometry x="1410" y="580" width="120" height="80" as="geometry" />
        </mxCell>
        <mxCell id="U0QtMe0iaihSaPbelgbA-25" value="View product details" style="ellipse;whiteSpace=wrap;html=1;" vertex="1" parent="1">
          <mxGeometry x="1180" y="890" width="120" height="80" as="geometry" />
        </mxCell>
        <mxCell id="U0QtMe0iaihSaPbelgbA-26" value="Change password" style="ellipse;whiteSpace=wrap;html=1;" vertex="1" parent="1">
          <mxGeometry x="1600" y="490" width="120" height="80" as="geometry" />
        </mxCell>
        <mxCell id="U0QtMe0iaihSaPbelgbA-27" value="Reset password" style="ellipse;whiteSpace=wrap;html=1;" vertex="1" parent="1">
          <mxGeometry x="1540" y="650" width="120" height="80" as="geometry" />
        </mxCell>
        <mxCell id="U0QtMe0iaihSaPbelgbA-28" value="&amp;lt;&amp;lt;extends&amp;gt;&amp;gt;" style="edgeStyle=orthogonalEdgeStyle;rounded=0;orthogonalLoop=1;jettySize=auto;html=1;exitX=0;exitY=0.5;exitDx=0;exitDy=0;entryX=1;entryY=0;entryDx=0;entryDy=0;dashed=1;" edge="1" parent="1" source="U0QtMe0iaihSaPbelgbA-30" target="U0QtMe0iaihSaPbelgbA-17">
          <mxGeometry relative="1" as="geometry" />
        </mxCell>
        <mxCell id="U0QtMe0iaihSaPbelgbA-29" value="Update cart" style="ellipse;whiteSpace=wrap;html=1;" vertex="1" parent="1">
          <mxGeometry x="1170" y="390" width="120" height="80" as="geometry" />
        </mxCell>
        <mxCell id="U0QtMe0iaihSaPbelgbA-30" value="Cart checkout" style="ellipse;whiteSpace=wrap;html=1;" vertex="1" parent="1">
          <mxGeometry x="1170" y="290" width="120" height="80" as="geometry" />
        </mxCell>
        <mxCell id="U0QtMe0iaihSaPbelgbA-31" value="View post details" style="ellipse;whiteSpace=wrap;html=1;" vertex="1" parent="1">
          <mxGeometry x="1180" y="1010" width="120" height="80" as="geometry" />
        </mxCell>
        <mxCell id="U0QtMe0iaihSaPbelgbA-32" value="&amp;lt;&amp;lt;extends&amp;gt;&amp;gt;" style="edgeStyle=orthogonalEdgeStyle;rounded=0;orthogonalLoop=1;jettySize=auto;html=1;exitX=0;exitY=0.5;exitDx=0;exitDy=0;entryX=1;entryY=0.5;entryDx=0;entryDy=0;dashed=1;" edge="1" parent="1" source="U0QtMe0iaihSaPbelgbA-34" target="U0QtMe0iaihSaPbelgbA-33">
          <mxGeometry relative="1" as="geometry" />
        </mxCell>
        <mxCell id="U0QtMe0iaihSaPbelgbA-33" value="View order details" style="ellipse;whiteSpace=wrap;html=1;" vertex="1" parent="1">
          <mxGeometry x="1430" y="890" width="120" height="80" as="geometry" />
        </mxCell>
        <mxCell id="U0QtMe0iaihSaPbelgbA-34" value="Add feedback" style="ellipse;whiteSpace=wrap;html=1;" vertex="1" parent="1">
          <mxGeometry x="1600" y="770" width="120" height="80" as="geometry" />
        </mxCell>
        <mxCell id="U0QtMe0iaihSaPbelgbA-35" value="Log out" style="ellipse;whiteSpace=wrap;html=1;" vertex="1" parent="1">
          <mxGeometry x="1120" y="790" width="120" height="80" as="geometry" />
        </mxCell>
        <mxCell id="U0QtMe0iaihSaPbelgbA-36" value="&amp;lt;&amp;lt;extends&amp;gt;&amp;gt;" style="rounded=0;orthogonalLoop=1;jettySize=auto;html=1;exitX=0;exitY=0.5;exitDx=0;exitDy=0;entryX=1;entryY=0.5;entryDx=0;entryDy=0;dashed=1;" edge="1" parent="1" source="U0QtMe0iaihSaPbelgbA-37" target="U0QtMe0iaihSaPbelgbA-13">
          <mxGeometry x="0.002" relative="1" as="geometry">
            <mxPoint as="offset" />
          </mxGeometry>
        </mxCell>
        <mxCell id="U0QtMe0iaihSaPbelgbA-37" value="Search post" style="ellipse;whiteSpace=wrap;html=1;" vertex="1" parent="1">
          <mxGeometry x="1420" y="390" width="120" height="80" as="geometry" />
        </mxCell>
        <mxCell id="U0QtMe0iaihSaPbelgbA-38" value="&amp;lt;&amp;lt;extends&amp;gt;&amp;gt;" style="edgeStyle=none;rounded=0;orthogonalLoop=1;jettySize=auto;html=1;exitX=0;exitY=0.5;exitDx=0;exitDy=0;entryX=1;entryY=0.5;entryDx=0;entryDy=0;dashed=1;" edge="1" parent="1" source="U0QtMe0iaihSaPbelgbA-39" target="U0QtMe0iaihSaPbelgbA-13">
          <mxGeometry relative="1" as="geometry" />
        </mxCell>
        <mxCell id="U0QtMe0iaihSaPbelgbA-39" value="Search product" style="ellipse;whiteSpace=wrap;html=1;" vertex="1" parent="1">
          <mxGeometry x="1290" y="490" width="120" height="80" as="geometry" />
        </mxCell>
        <mxCell id="U0QtMe0iaihSaPbelgbA-40" value="View profile" style="ellipse;whiteSpace=wrap;html=1;" vertex="1" parent="1">
          <mxGeometry x="1170" y="580" width="120" height="80" as="geometry" />
        </mxCell>
      </root>
    </mxGraphModel>
  </diagram>
</mxfile>
